<svg width="113" height="23" viewBox="0 0 113 23" fill="none" xmlns="http://www.w3.org/2000/svg">
<path d="M32.4784 17.3658H31.6684C29.8795 17.3658 28.6306 16.8928 27.9134 15.9383C27.1962 14.9922 27.078 13.6238 27.5506 11.833L29.2213 5.59062C29.7023 3.79984 30.5545 2.43142 31.7781 1.48535C33.0016 0.530835 34.512 0.0578003 36.2925 0.0578003H44.1231C44.6209 0.0578003 44.8066 0.294318 44.68 0.767353L40.4272 16.6478C40.3006 17.1208 39.9884 17.3574 39.4905 17.3574H36.6469C36.1744 17.3574 35.9972 17.1208 36.1237 16.6478L36.4275 15.5244H36.2925C35.879 16.1325 35.3137 16.5971 34.6049 16.9012C33.8876 17.2138 33.1788 17.3658 32.4784 17.3658ZM37.6257 11.0474L39.4737 4.15462C39.5412 3.90966 39.4399 3.78295 39.1699 3.78295H35.9803C35.2546 3.78295 34.7061 3.935 34.3348 4.23909C33.9551 4.54319 33.6767 5.05846 33.4826 5.7849L31.9215 11.6218C31.7274 12.3483 31.7359 12.8635 31.9468 13.1676C32.1578 13.4717 32.6303 13.6238 33.3476 13.6238H34.6049C36.1575 13.6322 37.1616 12.7706 37.6257 11.0474Z" fill="#551B76"/>
<path d="M47.2283 17.3658H44.3425C43.8699 17.3658 43.6927 17.1293 43.8193 16.6563L48.0721 0.775806C48.1987 0.302771 48.5025 0.0662537 48.975 0.0662537H51.8608C52.3334 0.0662537 52.5106 0.302771 52.384 0.775806L52.0802 1.89926H52.2153C53.0422 0.674442 54.3079 0.0662537 56.0293 0.0662537H57.1178C60.6618 0.0662537 61.9444 1.90771 60.9572 5.59907L57.9954 16.6647C57.8688 17.1377 57.5566 17.3743 57.0588 17.3743H54.2151C53.7426 17.3743 53.5654 17.1377 53.6919 16.6647L56.6031 5.8018C56.7972 5.07536 56.7803 4.56009 56.5609 4.25599C56.3415 3.9519 55.8605 3.79985 55.1433 3.79985H53.9198C52.3587 3.79985 51.3461 4.66145 50.8905 6.3762L48.1396 16.6563C48.0046 17.1293 47.7008 17.3658 47.2283 17.3658Z" fill="#551B76"/>
<path d="M67.3364 16.5802H66.2142C64.4759 16.5802 63.2861 16.1072 62.6448 15.1527C62.0035 14.1982 61.9276 12.8297 62.4086 11.0474L63.8684 5.58217C64.3493 3.79139 65.2016 2.42297 66.4251 1.4769C67.6487 0.522382 69.1591 0.0493469 70.9395 0.0493469H78.7701C79.268 0.0493469 79.4536 0.285865 79.3271 0.7589L74.8548 17.501C74.3823 19.2664 73.53 20.6264 72.2896 21.5724C71.0492 22.527 69.5557 23 67.7921 23H61.2863C61.0163 23 60.8391 22.9493 60.7716 22.8479C60.6956 22.7466 60.6956 22.5692 60.7631 22.3242L61.3875 19.9844C61.5141 19.5114 61.8179 19.2748 62.2904 19.2748H68.0874C68.8131 19.2748 69.3616 19.1228 69.7498 18.8187C70.1379 18.5146 70.4248 18.0078 70.6104 17.3067L71.3024 14.7303H71.1674C70.7539 15.3385 70.1885 15.8031 69.4713 16.1241C68.7456 16.4282 68.0368 16.5802 67.3364 16.5802ZM72.4837 10.2703L74.1207 4.16306C74.1882 3.9181 74.087 3.79139 73.8169 3.79139H70.6273C69.9016 3.79139 69.3532 3.94344 68.9819 4.24753C68.6022 4.55163 68.3237 5.0669 68.1296 5.79334L66.7795 10.8531C66.5854 11.5796 66.5939 12.0864 66.8133 12.382C67.0242 12.6777 67.4968 12.8213 68.2224 12.8213H69.4797C71.0239 12.8128 72.0281 11.9681 72.4837 10.2703Z" fill="#551B76"/>
<path d="M91.0308 17.3658H83.5377C81.7488 17.3658 80.5 16.8928 79.7827 15.9383C79.0655 14.9922 78.9473 13.6238 79.4199 11.833L81.0906 5.59062C81.5716 3.79984 82.4239 2.43142 83.6474 1.48535C84.8709 0.530835 86.3814 0.0578003 88.1618 0.0578003H90.8367C92.6256 0.0578003 93.8744 0.530835 94.5917 1.48535C95.3089 2.43987 95.4271 3.80829 94.9461 5.59062L93.7901 9.89862C93.6635 10.3717 93.3597 10.6082 92.8872 10.6082H84.3815C84.1115 10.6082 83.9427 10.7349 83.8752 10.9798L83.6727 11.7232C83.4871 12.4243 83.5039 12.9311 83.7233 13.2352C83.9427 13.5393 84.4153 13.6913 85.141 13.6913H91.9927C92.4653 13.6913 92.634 13.9363 92.5075 14.4347L91.9083 16.6732C91.8408 16.9266 91.748 17.0955 91.613 17.1969C91.5033 17.3151 91.3008 17.3658 91.0308 17.3658ZM85.1663 7.72773H89.7735C90.0182 7.72773 90.1785 7.60102 90.246 7.35605L90.6848 5.72577C90.8789 4.99933 90.8705 4.4925 90.6511 4.19686C90.4317 3.90121 89.9676 3.75761 89.2419 3.75761H87.8158C87.0902 3.75761 86.5417 3.90966 86.1704 4.19686C85.7991 4.4925 85.5122 4.99933 85.3182 5.72577L84.8794 7.35605C84.8287 7.60102 84.9216 7.72773 85.1663 7.72773Z" fill="#551B76"/>
<path d="M100.76 17.3658H99.9499C98.161 17.3658 96.9121 16.8928 96.1949 15.9383C95.4777 14.9922 95.3595 13.6238 95.8321 11.833L97.5028 5.59062C97.9838 3.79984 98.836 2.43142 100.06 1.48535C101.283 0.530835 102.794 0.0578003 104.574 0.0578003H112.405C112.902 0.0578003 113.088 0.294318 112.962 0.767353L108.709 16.6478C108.582 17.1208 108.27 17.3574 107.772 17.3574H104.928C104.456 17.3574 104.279 17.1208 104.405 16.6478L104.709 15.5244H104.574C104.161 16.1325 103.595 16.5971 102.886 16.9012C102.169 17.2138 101.46 17.3658 100.76 17.3658ZM105.907 11.0474L107.755 4.15462C107.823 3.90966 107.721 3.78295 107.451 3.78295H104.262C103.536 3.78295 102.988 3.935 102.616 4.23909C102.237 4.54319 101.958 5.05846 101.764 5.7849L100.203 11.6218C100.009 12.3483 100.017 12.8635 100.228 13.1676C100.439 13.4717 100.912 13.6238 101.629 13.6238H102.886C104.439 13.6322 105.443 12.7706 105.907 11.0474Z" fill="#551B76"/>
<path d="M25.6013 5.8018L17.8888 0.150718C17.796 0.0831412 17.737 0.0578003 17.6104 0.0578003H15.4671C14.9861 0.0578003 14.4883 0.446365 14.3533 0.936294L8.66594 22.1806C8.54781 22.6368 8.81783 23 9.26505 23H11.9231C12.3787 23 12.8428 22.6283 12.9694 22.1806L13.2985 20.9558L14.6908 15.7524L15.7877 11.6641L17.5598 5.02467C17.6019 4.85573 17.8045 4.78815 17.9395 4.88952L22.3779 8.14163C22.5383 8.25989 22.5383 8.49641 22.3779 8.61466L17.5851 12.1286C17.3657 12.2891 17.2307 12.5932 17.2307 12.9311V16.2424C17.2307 16.8168 17.7032 16.7407 18.0829 16.462L25.5929 10.9545C25.7701 10.8278 25.8798 10.5828 25.8798 10.3125V6.43532C25.8798 6.17347 25.7701 5.9285 25.6013 5.8018Z" fill="#551B76"/>
<path d="M8.64911 0.353448V3.81674C8.64911 4.15462 8.50566 4.46716 8.28626 4.6361L3.50183 8.15008C3.34995 8.25989 3.34995 8.50485 3.50183 8.62311L8.2947 12.1371C8.51409 12.2976 8.64911 12.6101 8.64911 12.9396V16.2508C8.64911 16.8252 8.17657 16.7492 7.79685 16.4704L0.286897 10.9629C0.109696 10.8362 0 10.5913 0 10.321V6.43533C0 6.17347 0.109696 5.9285 0.278459 5.8018L7.99093 0.150718C8.28626 -0.0689054 8.64911 -0.0857989 8.64911 0.353448Z" fill="#29ADEB"/>
</svg>
